<?xml version="1.0" encoding="utf-8"?>
<!-- Generator: Adobe Illustrator 25.2.1, SVG Export Plug-In . SVG Version: 6.00 Build 0)  -->
<svg version="1.1" id="Layer_1" xmlns="http://www.w3.org/2000/svg" xmlns:xlink="http://www.w3.org/1999/xlink" x="0px" y="0px"
	 viewBox="0 0 50.9 11.4" style="enable-background:new 0 0 50.9 11.4;" xml:space="preserve">
<style type="text/css">
	.st0{fill:#FFFFFF;}
</style>
<g>
	<path class="st0" d="M2.4,1.1c0.8,0,1.4,0.6,1.4,1.4S3.2,3.8,2.4,3.8S1.1,3.2,1.1,2.4S1.7,1.1,2.4,1.1 M2.4,0C1.1,0,0,1.1,0,2.4
		s1.1,2.4,2.4,2.4s2.4-1.1,2.4-2.4S3.8,0,2.4,0L2.4,0z"/>
</g>
<g>
	<circle class="st0" cx="9" cy="2.4" r="2.4"/>
</g>
<g>
	<path class="st0" d="M15.6,1.1c0.8,0,1.4,0.6,1.4,1.4s-0.6,1.4-1.4,1.4c-0.8,0-1.4-0.6-1.4-1.4S14.8,1.1,15.6,1.1 M15.6,0
		c-1.3,0-2.4,1.1-2.4,2.4s1.1,2.4,2.4,2.4S18,3.8,18,2.4S16.9,0,15.6,0L15.6,0z"/>
</g>
<g>
	<path class="st0" d="M22.2,1.1c0.8,0,1.4,0.6,1.4,1.4s-0.6,1.4-1.4,1.4s-1.4-0.6-1.4-1.4S21.4,1.1,22.2,1.1 M22.2,0
		c-1.3,0-2.4,1.1-2.4,2.4s1.1,2.4,2.4,2.4s2.4-1.1,2.4-2.4S23.5,0,22.2,0L22.2,0z"/>
</g>
<g>
	<circle class="st0" cx="28.7" cy="2.4" r="2.4"/>
</g>
<g>
	<path class="st0" d="M35.3,1.1c0.8,0,1.4,0.6,1.4,1.4s-0.6,1.4-1.4,1.4S34,3.2,34,2.4S34.6,1.1,35.3,1.1 M35.3,0
		c-1.3,0-2.4,1.1-2.4,2.4s1.1,2.4,2.4,2.4s2.4-1.1,2.4-2.4C37.7,1.1,36.7,0,35.3,0L35.3,0z"/>
</g>
<g>
	<circle class="st0" cx="41.9" cy="2.4" r="2.4"/>
</g>
<g>
	<path class="st0" d="M48.5,1.1c0.8,0,1.4,0.6,1.4,1.4s-0.6,1.4-1.4,1.4s-1.4-0.6-1.4-1.4S47.7,1.1,48.5,1.1 M48.5,0
		c-1.3,0-2.4,1.1-2.4,2.4s1.1,2.4,2.4,2.4s2.4-1.1,2.4-2.4C50.9,1.1,49.8,0,48.5,0L48.5,0z"/>
</g>
<g>
	<path class="st0" d="M2.4,7.6c0.8,0,1.4,0.6,1.4,1.4s-0.6,1.4-1.4,1.4S1.1,9.8,1.1,9S1.7,7.6,2.4,7.6 M2.4,6.6C1.1,6.6,0,7.7,0,9
		s1.1,2.4,2.4,2.4S4.8,10.3,4.8,9S3.8,6.6,2.4,6.6L2.4,6.6z"/>
</g>
<g>
	<circle class="st0" cx="9" cy="9" r="2.4"/>
</g>
<g>
	<path class="st0" d="M22.2,7.6c0.8,0,1.4,0.6,1.4,1.4s-0.6,1.4-1.4,1.4S20.8,9.8,20.8,9S21.4,7.6,22.2,7.6 M22.2,6.6
		c-1.3,0-2.4,1.1-2.4,2.4s1.1,2.4,2.4,2.4s2.4-1.1,2.4-2.4S23.5,6.6,22.2,6.6L22.2,6.6z"/>
</g>
<g>
	<circle class="st0" cx="28.7" cy="9" r="2.4"/>
</g>
<g>
	<path class="st0" d="M35.3,7.6c0.8,0,1.4,0.6,1.4,1.4s-0.6,1.4-1.4,1.4S34,9.8,34,9S34.6,7.6,35.3,7.6 M35.3,6.6
		c-1.3,0-2.4,1.1-2.4,2.4s1.1,2.4,2.4,2.4c1.3,0,2.4-1.1,2.4-2.4C37.7,7.7,36.7,6.6,35.3,6.6L35.3,6.6z"/>
</g>
<g>
	<circle class="st0" cx="41.9" cy="9" r="2.4"/>
</g>
<g>
	<circle class="st0" cx="48.5" cy="9" r="2.4"/>
</g>
<g>
	<path class="st0" d="M15.6,7.6c0.8,0,1.4,0.6,1.4,1.4s-0.6,1.4-1.4,1.4c-0.8,0-1.4-0.6-1.4-1.4S14.8,7.6,15.6,7.6 M15.6,6.6
		c-1.3,0-2.4,1.1-2.4,2.4s1.1,2.4,2.4,2.4S18,10.3,18,9S16.9,6.6,15.6,6.6L15.6,6.6z"/>
</g>
</svg>
